<svg xmlns="http://www.w3.org/2000/svg" xmlns:xlink="http://www.w3.org/1999/xlink" version="1.1" width="256" height="256" viewBox="0 0 256 256" xml:space="preserve">
<g style="stroke: none; stroke-width: 0; stroke-dasharray: none; stroke-linecap: butt; stroke-linejoin: miter; stroke-miterlimit: 10; fill: none; fill-rule: nonzero; opacity: 1;" transform="translate(1.4065934065934016 1.4065934065934016) scale(2.81 2.81)">
	<path d="M 89 75.729 H 1 c -0.552 0 -1 -0.447 -1 -1 s 0.448 -1 1 -1 h 88 c 0.553 0 1 0.447 1 1 S 89.553 75.729 89 75.729 z" style="stroke: none; stroke-width: 1; stroke-dasharray: none; stroke-linecap: butt; stroke-linejoin: miter; stroke-miterlimit: 10; fill: rgb(0,0,0); fill-rule: nonzero; opacity: 1;" transform=" matrix(1 0 0 1 0 0) " stroke-linecap="round"/>
	<path d="M 45 26.062 c -0.552 0 -1 -0.448 -1 -1 v -9.791 c 0 -0.552 0.448 -1 1 -1 s 1 0.448 1 1 v 9.791 C 46 25.614 45.552 26.062 45 26.062 z" style="stroke: none; stroke-width: 1; stroke-dasharray: none; stroke-linecap: butt; stroke-linejoin: miter; stroke-miterlimit: 10; fill: rgb(0,0,0); fill-rule: nonzero; opacity: 1;" transform=" matrix(1 0 0 1 0 0) " stroke-linecap="round"/>
	<path d="M 56.181 75.729 c -0.553 0 -1 -0.447 -1 -1 V 32.417 L 45 26.232 l -10.181 6.186 v 42.311 c 0 0.553 -0.448 1 -1 1 s -1 -0.447 -1 -1 V 31.855 c 0 -0.349 0.182 -0.673 0.481 -0.854 l 11.181 -6.793 c 0.318 -0.194 0.72 -0.194 1.038 0 L 56.7 31 c 0.298 0.181 0.48 0.505 0.48 0.854 v 42.874 C 57.181 75.281 56.733 75.729 56.181 75.729 z" style="stroke: none; stroke-width: 1; stroke-dasharray: none; stroke-linecap: butt; stroke-linejoin: miter; stroke-miterlimit: 10; fill: rgb(0,0,0); fill-rule: nonzero; opacity: 1;" transform=" matrix(1 0 0 1 0 0) " stroke-linecap="round"/>
	<path d="M 50.87 75.729 c -0.553 0 -1 -0.447 -1 -1 V 65.99 c 0 -2.686 -2.185 -4.87 -4.87 -4.87 s -4.87 2.185 -4.87 4.87 v 8.738 c 0 0.553 -0.448 1 -1 1 s -1 -0.447 -1 -1 V 65.99 c 0 -3.788 3.082 -6.87 6.87 -6.87 s 6.87 3.082 6.87 6.87 v 8.738 C 51.87 75.281 51.423 75.729 50.87 75.729 z" style="stroke: none; stroke-width: 1; stroke-dasharray: none; stroke-linecap: butt; stroke-linejoin: miter; stroke-miterlimit: 10; fill: rgb(0,0,0); fill-rule: nonzero; opacity: 1;" transform=" matrix(1 0 0 1 0 0) " stroke-linecap="round"/>
	<path d="M 4.244 75.729 c -0.552 0 -1 -0.447 -1 -1 V 45.511 c 0 -0.552 0.448 -1 1 -1 h 29.575 c 0.552 0 1 0.448 1 1 s -0.448 1 -1 1 H 5.244 v 28.218 C 5.244 75.281 4.796 75.729 4.244 75.729 z" style="stroke: none; stroke-width: 1; stroke-dasharray: none; stroke-linecap: butt; stroke-linejoin: miter; stroke-miterlimit: 10; fill: rgb(0,0,0); fill-rule: nonzero; opacity: 1;" transform=" matrix(1 0 0 1 0 0) " stroke-linecap="round"/>
	<path d="M 85.756 75.729 c -0.553 0 -1 -0.447 -1 -1 V 46.511 H 56.181 c -0.553 0 -1 -0.447 -1 -1 s 0.447 -1 1 -1 h 29.575 c 0.553 0 1 0.448 1 1 v 29.217 C 86.756 75.281 86.309 75.729 85.756 75.729 z" style="stroke: none; stroke-width: 1; stroke-dasharray: none; stroke-linecap: butt; stroke-linejoin: miter; stroke-miterlimit: 10; fill: rgb(0,0,0); fill-rule: nonzero; opacity: 1;" transform=" matrix(1 0 0 1 0 0) " stroke-linecap="round"/>
	<path d="M 28.234 58.69 h -6.926 c -0.552 0 -1 -0.447 -1 -1 v -3.463 c 0 -2.461 2.002 -4.463 4.463 -4.463 s 4.463 2.002 4.463 4.463 v 3.463 C 29.234 58.243 28.787 58.69 28.234 58.69 z M 22.309 56.69 h 4.926 v -2.463 c 0 -1.358 -1.105 -2.463 -2.463 -2.463 s -2.463 1.104 -2.463 2.463 V 56.69 z" style="stroke: none; stroke-width: 1; stroke-dasharray: none; stroke-linecap: butt; stroke-linejoin: miter; stroke-miterlimit: 10; fill: rgb(0,0,0); fill-rule: nonzero; opacity: 1;" transform=" matrix(1 0 0 1 0 0) " stroke-linecap="round"/>
	<path d="M 28.234 70.077 h -6.926 c -0.552 0 -1 -0.447 -1 -1 v -3.463 c 0 -2.46 2.002 -4.462 4.463 -4.462 s 4.463 2.002 4.463 4.462 v 3.463 C 29.234 69.63 28.787 70.077 28.234 70.077 z M 22.309 68.077 h 4.926 v -2.463 c 0 -1.357 -1.105 -2.462 -2.463 -2.462 s -2.463 1.104 -2.463 2.462 V 68.077 z" style="stroke: none; stroke-width: 1; stroke-dasharray: none; stroke-linecap: butt; stroke-linejoin: miter; stroke-miterlimit: 10; fill: rgb(0,0,0); fill-rule: nonzero; opacity: 1;" transform=" matrix(1 0 0 1 0 0) " stroke-linecap="round"/>
	<path d="M 16.276 58.69 H 9.351 c -0.552 0 -1 -0.447 -1 -1 v -3.463 c 0 -2.461 2.002 -4.463 4.462 -4.463 c 2.461 0 4.463 2.002 4.463 4.463 v 3.463 C 17.276 58.243 16.829 58.69 16.276 58.69 z M 10.351 56.69 h 4.925 v -2.463 c 0 -1.358 -1.105 -2.463 -2.463 -2.463 s -2.462 1.104 -2.462 2.463 V 56.69 z" style="stroke: none; stroke-width: 1; stroke-dasharray: none; stroke-linecap: butt; stroke-linejoin: miter; stroke-miterlimit: 10; fill: rgb(0,0,0); fill-rule: nonzero; opacity: 1;" transform=" matrix(1 0 0 1 0 0) " stroke-linecap="round"/>
	<path d="M 16.276 70.077 H 9.351 c -0.552 0 -1 -0.447 -1 -1 v -3.463 c 0 -2.46 2.002 -4.462 4.462 -4.462 c 2.461 0 4.463 2.002 4.463 4.462 v 3.463 C 17.276 69.63 16.829 70.077 16.276 70.077 z M 10.351 68.077 h 4.925 v -2.463 c 0 -1.357 -1.105 -2.462 -2.463 -2.462 s -2.462 1.104 -2.462 2.462 V 68.077 z" style="stroke: none; stroke-width: 1; stroke-dasharray: none; stroke-linecap: butt; stroke-linejoin: miter; stroke-miterlimit: 10; fill: rgb(0,0,0); fill-rule: nonzero; opacity: 1;" transform=" matrix(1 0 0 1 0 0) " stroke-linecap="round"/>
	<path d="M 68.691 58.69 h -6.926 c -0.553 0 -1 -0.447 -1 -1 v -3.463 c 0 -2.461 2.002 -4.463 4.463 -4.463 s 4.463 2.002 4.463 4.463 v 3.463 C 69.691 58.243 69.244 58.69 68.691 58.69 z M 62.766 56.69 h 4.926 v -2.463 c 0 -1.358 -1.104 -2.463 -2.463 -2.463 s -2.463 1.104 -2.463 2.463 V 56.69 z" style="stroke: none; stroke-width: 1; stroke-dasharray: none; stroke-linecap: butt; stroke-linejoin: miter; stroke-miterlimit: 10; fill: rgb(0,0,0); fill-rule: nonzero; opacity: 1;" transform=" matrix(1 0 0 1 0 0) " stroke-linecap="round"/>
	<path d="M 68.691 70.077 h -6.926 c -0.553 0 -1 -0.447 -1 -1 v -3.463 c 0 -2.46 2.002 -4.462 4.463 -4.462 s 4.463 2.002 4.463 4.462 v 3.463 C 69.691 69.63 69.244 70.077 68.691 70.077 z M 62.766 68.077 h 4.926 v -2.463 c 0 -1.357 -1.104 -2.462 -2.463 -2.462 s -2.463 1.104 -2.463 2.462 V 68.077 z" style="stroke: none; stroke-width: 1; stroke-dasharray: none; stroke-linecap: butt; stroke-linejoin: miter; stroke-miterlimit: 10; fill: rgb(0,0,0); fill-rule: nonzero; opacity: 1;" transform=" matrix(1 0 0 1 0 0) " stroke-linecap="round"/>
	<path d="M 80.649 58.69 h -6.926 c -0.553 0 -1 -0.447 -1 -1 v -3.463 c 0 -2.461 2.002 -4.463 4.463 -4.463 s 4.463 2.002 4.463 4.463 v 3.463 C 81.649 58.243 81.202 58.69 80.649 58.69 z M 74.724 56.69 h 4.926 v -2.463 c 0 -1.358 -1.104 -2.463 -2.463 -2.463 s -2.463 1.104 -2.463 2.463 V 56.69 z" style="stroke: none; stroke-width: 1; stroke-dasharray: none; stroke-linecap: butt; stroke-linejoin: miter; stroke-miterlimit: 10; fill: rgb(0,0,0); fill-rule: nonzero; opacity: 1;" transform=" matrix(1 0 0 1 0 0) " stroke-linecap="round"/>
	<path d="M 80.649 70.077 h -6.926 c -0.553 0 -1 -0.447 -1 -1 v -3.463 c 0 -2.46 2.002 -4.462 4.463 -4.462 s 4.463 2.002 4.463 4.462 v 3.463 C 81.649 69.63 81.202 70.077 80.649 70.077 z M 74.724 68.077 h 4.926 v -2.463 c 0 -1.357 -1.104 -2.462 -2.463 -2.462 s -2.463 1.104 -2.463 2.462 V 68.077 z" style="stroke: none; stroke-width: 1; stroke-dasharray: none; stroke-linecap: butt; stroke-linejoin: miter; stroke-miterlimit: 10; fill: rgb(0,0,0); fill-rule: nonzero; opacity: 1;" transform=" matrix(1 0 0 1 0 0) " stroke-linecap="round"/>
	<path d="M 45 47.762 c -3.788 0 -6.87 -3.082 -6.87 -6.871 c 0 -3.788 3.082 -6.87 6.87 -6.87 s 6.87 3.082 6.87 6.87 C 51.87 44.68 48.788 47.762 45 47.762 z M 45 36.021 c -2.686 0 -4.87 2.185 -4.87 4.87 s 2.185 4.871 4.87 4.871 s 4.87 -2.185 4.87 -4.871 S 47.686 36.021 45 36.021 z" style="stroke: none; stroke-width: 1; stroke-dasharray: none; stroke-linecap: butt; stroke-linejoin: miter; stroke-miterlimit: 10; fill: rgb(0,0,0); fill-rule: nonzero; opacity: 1;" transform=" matrix(1 0 0 1 0 0) " stroke-linecap="round"/>
	<path d="M 46.523 43.414 c -0.256 0 -0.512 -0.098 -0.707 -0.292 l -1.523 -1.522 C 44.105 41.411 44 41.156 44 40.891 v -2.021 c 0 -0.552 0.448 -1 1 -1 s 1 0.448 1 1 v 1.606 l 1.23 1.229 c 0.391 0.391 0.391 1.024 0 1.415 C 47.035 43.316 46.779 43.414 46.523 43.414 z" style="stroke: none; stroke-width: 1; stroke-dasharray: none; stroke-linecap: butt; stroke-linejoin: miter; stroke-miterlimit: 10; fill: rgb(0,0,0); fill-rule: nonzero; opacity: 1;" transform=" matrix(1 0 0 1 0 0) " stroke-linecap="round"/>
	<path d="M 54.143 22.865 H 45 c -0.552 0 -1 -0.448 -1 -1 v -6.594 c 0 -0.552 0.448 -1 1 -1 h 9.143 c 0.361 0 0.694 0.195 0.871 0.509 c 0.178 0.315 0.171 0.701 -0.016 1.009 l -1.686 2.778 l 1.686 2.778 c 0.187 0.309 0.193 0.694 0.016 1.009 C 54.837 22.67 54.504 22.865 54.143 22.865 z M 46 20.865 h 6.366 l -1.078 -1.778 c -0.193 -0.319 -0.193 -0.718 0 -1.037 l 1.078 -1.778 H 46 V 20.865 z" style="stroke: none; stroke-width: 1; stroke-dasharray: none; stroke-linecap: butt; stroke-linejoin: miter; stroke-miterlimit: 10; fill: rgb(0,0,0); fill-rule: nonzero; opacity: 1;" transform=" matrix(1 0 0 1 0 0) " stroke-linecap="round"/>
	<path d="M 85.756 46.512 H 56.181 c -0.553 0 -1 -0.448 -1 -1 v -9.775 c 0 -0.552 0.447 -1 1 -1 h 19.575 c 0.262 0 0.512 0.102 0.699 0.285 l 10 9.775 c 0.29 0.284 0.38 0.716 0.227 1.093 C 86.528 46.265 86.162 46.512 85.756 46.512 z M 57.181 44.511 h 26.122 l -7.954 -7.775 H 57.181 V 44.511 z" style="stroke: none; stroke-width: 1; stroke-dasharray: none; stroke-linecap: butt; stroke-linejoin: miter; stroke-miterlimit: 10; fill: rgb(0,0,0); fill-rule: nonzero; opacity: 1;" transform=" matrix(1 0 0 1 0 0) " stroke-linecap="round"/>
	<path d="M 33.819 46.512 H 4.244 c -0.407 0 -0.772 -0.247 -0.926 -0.623 c -0.153 -0.376 -0.063 -0.809 0.227 -1.093 l 10 -9.775 c 0.187 -0.183 0.438 -0.285 0.699 -0.285 h 19.575 c 0.552 0 1 0.448 1 1 v 9.775 C 34.819 46.063 34.371 46.512 33.819 46.512 z M 6.698 44.511 h 26.121 v -7.775 H 14.652 L 6.698 44.511 z" style="stroke: none; stroke-width: 1; stroke-dasharray: none; stroke-linecap: butt; stroke-linejoin: miter; stroke-miterlimit: 10; fill: rgb(0,0,0); fill-rule: nonzero; opacity: 1;" transform=" matrix(1 0 0 1 0 0) " stroke-linecap="round"/>
</g>
</svg>